<?xml version="1.0" encoding="UTF-8"?>
<svg width="230px" height="40px" viewBox="0 0 230 40" version="1.1" xmlns="http://www.w3.org/2000/svg" xmlns:xlink="http://www.w3.org/1999/xlink">
    <!-- Generator: Sketch 41.2 (35397) - http://www.bohemiancoding.com/sketch -->
    <title>logo</title>
    <desc>Created with Sketch.</desc>
    <defs>
        <polygon id="path-1" points="20.3328767 0.126153846 0.0459484305 0.126153846 0.0459484305 24.3433333 20.3328767 24.3433333 20.3328767 0.126153846"></polygon>
        <polygon id="path-3" points="20.6123834 0.126153846 0.322360987 0.126153846 0.322360987 39.4869744 20.6123834 39.4869744 20.6123834 0.126153846"></polygon>
        <polygon id="path-5" points="20.9052982 0.126153846 0.0861726457 0.126153846 0.0861726457 24.3434359 20.9052982 24.3434359 20.9052982 0.126153846"></polygon>
        <polygon id="path-7" points="24.7456278 24.343641 24.7456278 0.126205128 0.373982063 0.126205128 0.373982063 24.343641 24.7456278 24.343641"></polygon>
    </defs>
    <g id="Welcome" stroke="none" stroke-width="1" fill="none" fill-rule="evenodd">
        <g id="Desktop-HD" transform="translate(-70.000000, -51.000000)">
            <g id="logo" transform="translate(70.000000, 51.000000)">
                <polygon id="Fill-1" fill="#FEFEFE" points="0 0.512615385 0 24.7305641 16.2320179 24.7305641 16.2320179 20.6869744 4.04511211 20.6869744 4.04511211 0.512615385"></polygon>
                <path d="M49.1300112,0.512615385 L36.9425897,24.7305641 L41.4745179,24.7305641 L43.5470964,20.6869744 L54.7495404,20.6869744 L56.7855045,24.7305641 L61.316917,24.7305641 L49.1300112,0.512615385 Z M49.1300112,9.54697436 L52.7115135,16.6700513 L45.548509,16.6700513 L49.1300112,9.54697436 Z" id="Fill-2" fill="#FEFEFE"></path>
                <g id="Group-15" transform="translate(81.995516, 0.386821)">
                    <g id="Group-5">
                        <mask id="mask-2" fill="white">
                            <use xlink:href="#path-1"></use>
                        </mask>
                        <g id="Clip-4"></g>
                        <path d="M13.2467108,20.3002564 C13.643796,20.3002564 14.0305673,20.2264103 14.4034148,20.0741026 C14.7793565,19.9264103 15.1073386,19.7105128 15.3858139,19.4315385 C15.6689305,19.1525641 15.8855224,18.8258974 16.0366211,18.4520513 C16.1902982,18.0787179 16.2671368,17.6941026 16.2671368,17.2992308 C16.2671368,16.904359 16.1902982,16.5151282 16.0366211,16.1464103 C15.8855224,15.7725641 15.6740874,15.4464103 15.4069574,15.1674359 C15.1367332,14.8884615 14.8139081,14.6720513 14.4379664,14.5038462 C14.0671816,14.3407692 13.6700964,14.2617949 13.2467108,14.2617949 L4.0848722,14.2617949 L4.0848722,20.3002564 L13.2467108,20.3002564 Z M13.2467108,4.16948718 L4.0848722,4.16948718 L4.0848722,10.2397436 L13.2467108,10.2397436 C13.643796,10.2397436 14.0305673,10.1607692 14.4034148,9.99717949 C14.7793565,9.83410256 15.1073386,9.61307692 15.3858139,9.33410256 C15.6689305,9.04948718 15.8855224,8.72846154 16.0366211,8.35461538 C16.1902982,7.98589744 16.2671368,7.58589744 16.2671368,7.17 C16.2671368,6.77512821 16.1902982,6.39615385 16.0366211,6.02230769 C15.8855224,5.64846154 15.6689305,5.32230769 15.3858139,5.04333333 C15.1073386,4.76435897 14.7793565,4.54846154 14.4034148,4.39564103 C14.0305673,4.24846154 13.643796,4.16948718 13.2467108,4.16948718 L13.2467108,4.16948718 Z M18.1911951,12.2346154 C19.6212175,13.6089744 20.3328767,15.2987179 20.3328767,17.2992308 C20.3328767,18.2520513 20.1451637,19.1628205 19.7743789,20.0212821 C19.3984372,20.8848718 18.8904776,21.6320513 18.2443117,22.2689744 C17.6012399,22.9115385 16.8441996,23.4166667 15.9814417,23.7905128 C15.1130112,24.164359 14.1997152,24.3433333 13.2441323,24.3433333 L0.0459484305,24.3433333 L0.0459484305,0.125897436 L13.2441323,0.125897436 C14.1785717,0.125897436 15.0861951,0.310512821 15.9628767,0.683846154 C16.8441996,1.05769231 17.6012399,1.55769231 18.2443117,2.20025641 C18.8904776,2.84230769 19.3984372,3.59 19.7743789,4.45358974 C20.1451637,5.31717949 20.3328767,6.22230769 20.3328767,7.17512821 C20.3328767,9.15512821 19.6212175,10.8397436 18.1911951,12.2346154 L18.1911951,12.2346154 Z" id="Fill-3" fill="#FEFEFE" mask="url(#mask-2)"></path>
                    </g>
                    <g id="Group-8" transform="translate(40.739910, 0.000000)">
                        <mask id="mask-4" fill="white">
                            <use xlink:href="#path-3"></use>
                        </mask>
                        <g id="Clip-7"></g>
                        <path d="M20.6123834,29.4003077 C20.6123834,32.1905641 19.6170919,34.5756923 17.6290874,36.5546667 C15.6147825,38.508 13.2162848,39.4869744 10.4315314,39.4869744 C7.6710157,39.4869744 5.28283184,38.508 3.27110538,36.5546667 C1.30424439,34.5490256 0.322360987,32.1638974 0.322360987,29.4003077 L0.322360987,0.125948718 L4.36180045,0.125948718 L4.36180045,29.4003077 C4.36180045,31.0741538 4.94917713,32.4956923 6.11928924,33.6541538 C7.31054484,34.8438974 8.75088117,35.4331282 10.4341099,35.4331282 C12.1204327,35.4331282 13.5499395,34.8438974 14.7174731,33.6541538 C15.9350291,32.4746667 16.5435493,31.0531282 16.5435493,29.4003077 L16.5435493,0.125948718 L20.6123834,0.125948718 L20.6123834,29.4003077 Z" id="Fill-6" fill="#FEFEFE" mask="url(#mask-4)"></path>
                    </g>
                    <g id="Group-11" transform="translate(81.995516, 0.000000)">
                        <mask id="mask-6" fill="white">
                            <use xlink:href="#path-5"></use>
                        </mask>
                        <g id="Clip-10"></g>
                        <path d="M12.3024731,0.126 C13.9882803,0.126 15.5611502,0.441897436 17.0272713,1.0634359 C18.4887511,1.69471795 19.7805673,2.5685641 20.9052982,3.68497436 L18.025657,6.54907692 C16.4347377,4.96394872 14.5261502,4.16907692 12.3024731,4.16907692 C11.1772265,4.16907692 10.1241771,4.37984615 9.14177803,4.80087179 C8.15731614,5.21728205 7.29971525,5.79625641 6.55814574,6.52805128 C5.82224888,7.25984615 5.23745067,8.11779487 4.80323543,9.09676923 C4.36902018,10.0711282 4.15449103,11.1188205 4.15449103,12.2347179 C4.15449103,13.3562564 4.36902018,14.4039487 4.80323543,15.3777949 C5.23745067,16.3567692 5.81709193,17.2152308 6.54267489,17.9470256 C7.27032063,18.6788205 8.12792152,19.2577949 9.12063453,19.6736923 C10.1185045,20.0947179 11.1772265,20.300359 12.3024731,20.300359 C14.5019126,20.300359 16.4079215,19.5208718 18.025657,17.9629231 L20.9052982,20.7895897 C19.7805673,21.906 18.4887511,22.7798462 17.0272713,23.4065128 C15.5611502,24.0326667 13.9882803,24.3434359 12.3024731,24.3434359 C10.6135717,24.3434359 9.03606054,24.0275385 7.55910987,23.3854872 C6.08422197,22.7480513 4.7949843,21.8793333 3.68366143,20.7895897 C2.5687287,19.6947179 1.6899843,18.4157436 1.04949103,16.9521538 C0.406419283,15.4829231 0.0861726457,13.9142051 0.0861726457,12.2347179 C0.0861726457,10.6080513 0.406419283,9.06035897 1.04949103,7.58087179 C1.6899843,6.10138462 2.5687287,4.806 3.68366143,3.70087179 C4.7949843,2.59523077 6.08422197,1.72651282 7.55910987,1.08446154 C9.03606054,0.447025641 10.6135717,0.126 12.3024731,0.126" id="Fill-9" fill="#FEFEFE" mask="url(#mask-6)"></path>
                    </g>
                    <g id="Group-14" transform="translate(123.251121, 0.000000)">
                        <mask id="mask-8" fill="white">
                            <use xlink:href="#path-7"></use>
                        </mask>
                        <g id="Clip-13"></g>
                        <path d="M8.97680717,16.2831282 L16.1423901,16.2831282 L12.5583094,9.16005128 L8.97680717,16.2831282 Z M18.1783543,20.3000513 L6.97539462,20.3000513 L4.90281614,24.343641 L0.373982063,24.343641 L12.5583094,0.126205128 L24.7457309,24.343641 L20.2138027,24.343641 L18.1783543,20.3000513 Z" id="Fill-12" fill="#FEFEFE" mask="url(#mask-8)"></path>
                    </g>
                </g>
            </g>
        </g>
    </g>
</svg>